<svg xmlns="http://www.w3.org/2000/svg" viewBox="0 0 200 200">
  <circle cx="100" cy="100" r="100" fill="#7B2CBF"/>
  <ellipse cx="100" cy="168" rx="58" ry="40" fill="#F5C518"/>
  <circle cx="100" cy="96" r="52" fill="#f1c27d"/>
  <path d="M55 95c8-50 82-54 96-6-28-30-70-28-96 6z" fill="#6b2d5b"/>
  <path d="M44 110c6-20 18-48 28-52 4 20-2 40-12 56z" fill="#6b2d5b"/>
  <path d="M156 110c-6-20-18-48-28-52-4 20 2 40 12 56z" fill="#6b2d5b"/>
  <ellipse cx="83" cy="98" rx="7" ry="8" fill="#3d2314"/>
  <ellipse cx="117" cy="98" rx="7" ry="8" fill="#3d2314"/>
  <path d="M86 122c8 11 20 11 28 0" fill="none" stroke="#c68642" stroke-width="4" stroke-linecap="round"/>
</svg>
